# xmcd
# 
# Track frame offsets:
#   150
#   13275
#   29700
#   45000
#   59550
#   76200
#   89850
#   100950
#   116700
#   131550
#   150000
#   163125
#   179550
#   194850
#   209400
#   226050
#   239700
#   250800
#   266550
#   281400
# 
# Disc length: 4001 seconds
# 
# Revision: 4
# Processed by: cddbd v1.5.2PL0 Copyright (c) Steve Scherf et al.
# Submitted via: Synapstar 1.0 
# 
DISCID=230f9f14
DTITLE=Various Artist - CHT9910
DYEAR=1900
DGENRE=Country
TTITLE0=McBribe, Martina - I Love You
TTITLE1=Dixie Chicks - Ready to Run
TTITLE2=Shedaisy - This Woman Needs
TTITLE3=Andrews, Jessica - You Go First
TTITLE4=Cochran, Anita - For Crying Out Loud
TTITLE5=Howard, Rebecca Lynn - When Dreams Come True
TTITLE6=Reeves, Julie - Trouble Is a Woman
TTITLE7=Issacs, Sanya - On My Way to You
TTITLE8=Angelle, Lisa - I Wear Your Love
TTITLE9=Kershaw And Lorrie Morgan, Sammy - Maybe Not Tonight ( Duet )
TTITLE10=McBribe, Martina - I Love You (Vocals)
TTITLE11=Dixie Chicks - Ready to Run (Vocals)
TTITLE12=Shedaisy - This Woman Needs (Vocals)
TTITLE13=Andrews, Jessica - You Go First (Vocals)
TTITLE14=Cochran, Anita - For Crying Out Loud (Vocals)
TTITLE15=Howard, Rebecca Lynn - When Dreams Come True (Vocals)
TTITLE16=Reeves, Julie - Trouble Is a Woman (Vocals)
TTITLE17=Issacs, Sanya - On My Way to You (Vocals)
TTITLE18=Angelle, Lisa - I Wear Your Love (Vocals)
TTITLE19=Kershaw And Lorrie Morgan, Sammy - Maybe Not Tonight ( Duet ) (Vocals)
EXTD=MediaType: Karaoke CD+G Producer: COUNTRY HITS TODAY
EXTT0=
EXTT1=
EXTT2=
EXTT3=
EXTT4=
EXTT5=
EXTT6=
EXTT7=
EXTT8=
EXTT9=
EXTT10=
EXTT11=
EXTT12=
EXTT13=
EXTT14=
EXTT15=
EXTT16=
EXTT17=
EXTT18=
EXTT19=
PLAYORDER=
